# xmcd CD database file
#
# Track frame offsets:
#	150
#	13149
#	32027
#	51825
#	70180
#	89355
#	102370
#	117926
#	133071
#	147324
#
# Disc length: 2128 seconds
#
# Revision: 0
# Processed by: cddbd v1.5.1PL2 Copyright (c) Steve Scherf et al.
# Submitted via: CDex 1.51
#
DISCID=8d084e0a
DTITLE=ジャカランタン - パーティージャンク
DYEAR=2003
DGENRE=JPop
TTITLE0=うたかた
TTITLE1=ストライプス
TTITLE2=好きならな
TTITLE3=日常
TTITLE4=ふらふらぶうらぶら
TTITLE5=彼女の事情
TTITLE6=スロウダイヴ
TTITLE7=キャプテン・ウォー
TTITLE8=１２月になれば彼女は
TTITLE9=何も無い日
EXTD=YEAR: 2003
EXTT0=
EXTT1=
EXTT2=
EXTT3=
EXTT4=
EXTT5=
EXTT6=
EXTT7=
EXTT8=
EXTT9=
PLAYORDER=
